<svg width="192" height="192" viewBox="0 0 192 192" fill="none" xmlns="http://www.w3.org/2000/svg">
<rect width="192" height="192" rx="96" fill="#FF9F00"/>
<g filter="url(#filter0_d)">
<path d="M57.316 86.878V98.344C57.316 99.956 57.706 101.152 58.486 101.932C59.2833 102.712 60.384 103.102 61.788 103.102C63.1747 103.102 64.258 102.712 65.038 101.932C65.8353 101.152 66.234 99.956 66.234 98.344V86.878H68.6V98.318C68.6 99.826 68.2967 101.1 67.69 102.14C67.0833 103.163 66.26 103.925 65.22 104.428C64.1973 104.931 63.0447 105.182 61.762 105.182C60.4793 105.182 59.318 104.931 58.278 104.428C57.2553 103.925 56.4407 103.163 55.834 102.14C55.2447 101.1 54.95 99.826 54.95 98.318V86.878H57.316ZM82.0889 105L77.7729 97.59H74.9129V105H72.5469V86.878H78.3969C79.7663 86.878 80.9189 87.112 81.8549 87.58C82.8083 88.048 83.5189 88.6807 83.9869 89.478C84.4549 90.2753 84.6889 91.1853 84.6889 92.208C84.6889 93.456 84.3249 94.5567 83.5969 95.51C82.8863 96.4633 81.8116 97.096 80.3729 97.408L84.9229 105H82.0889ZM74.9129 95.692H78.3969C79.6796 95.692 80.6416 95.38 81.2829 94.756C81.9243 94.1147 82.2449 93.2653 82.2449 92.208C82.2449 91.1333 81.9243 90.3013 81.2829 89.712C80.6589 89.1227 79.6969 88.828 78.3969 88.828H74.9129V95.692ZM97.4393 95.666C98.0979 95.77 98.6959 96.0387 99.2333 96.472C99.7879 96.9053 100.221 97.4427 100.533 98.084C100.863 98.7253 101.027 99.41 101.027 100.138C101.027 101.057 100.793 101.889 100.325 102.634C99.8573 103.362 99.1726 103.943 98.2713 104.376C97.3873 104.792 96.3386 105 95.1253 105H88.3653V86.878H94.8653C96.0959 86.878 97.1446 87.086 98.0113 87.502C98.8779 87.9007 99.5279 88.4467 99.9613 89.14C100.395 89.8333 100.611 90.6133 100.611 91.48C100.611 92.5547 100.317 93.4473 99.7273 94.158C99.1553 94.8513 98.3926 95.354 97.4393 95.666ZM90.7313 94.704H94.7093C95.8186 94.704 96.6766 94.444 97.2833 93.924C97.8899 93.404 98.1933 92.6847 98.1933 91.766C98.1933 90.8473 97.8899 90.128 97.2833 89.608C96.6766 89.088 95.8013 88.828 94.6573 88.828H90.7313V94.704ZM94.9173 103.05C96.0959 103.05 97.0146 102.773 97.6733 102.218C98.3319 101.663 98.6613 100.892 98.6613 99.904C98.6613 98.8987 98.3146 98.11 97.6213 97.538C96.9279 96.9487 96.0006 96.654 94.8393 96.654H90.7313V103.05H94.9173ZM115.023 100.97H107.119L105.663 105H103.167L109.719 86.982H112.449L118.975 105H116.479L115.023 100.97ZM114.347 99.046L111.071 89.894L107.795 99.046H114.347ZM136.078 105H133.712L124.196 90.57V105H121.83V86.852H124.196L133.712 101.256V86.852H136.078V105Z" fill="white" fill-opacity="0.85"/>
</g>
<defs>
<filter id="filter0_d" x="50.95" y="86.8521" width="89.1281" height="26.33" filterUnits="userSpaceOnUse" color-interpolation-filters="sRGB">
<feFlood flood-opacity="0" result="BackgroundImageFix"/>
<feColorMatrix in="SourceAlpha" type="matrix" values="0 0 0 0 0 0 0 0 0 0 0 0 0 0 0 0 0 0 127 0"/>
<feOffset dy="4"/>
<feGaussianBlur stdDeviation="2"/>
<feColorMatrix type="matrix" values="0 0 0 0 0 0 0 0 0 0 0 0 0 0 0 0 0 0 0.25 0"/>
<feBlend mode="normal" in2="BackgroundImageFix" result="effect1_dropShadow"/>
<feBlend mode="normal" in="SourceGraphic" in2="effect1_dropShadow" result="shape"/>
</filter>
</defs>
</svg>
